<?xml version="1.0" encoding="UTF-8"?>
<svg xmlns="http://www.w3.org/2000/svg" xmlns:xlink="http://www.w3.org/1999/xlink" version="1.1" id="Capa_1" x="0px" y="0px" viewBox="0 0 512 512" style="enable-background:new 0 0 512 512;" xml:space="preserve" width="512" height="512">
<g id="Error_404">
	<path style="fill:none;stroke:#000000;stroke-width:40;stroke-linecap:round;stroke-linejoin:round;stroke-miterlimit:10;" d="&#10;&#9;&#9;M452,476H60c-22.091,0-40-17.909-40-40s17.909-40,40-40h392c22.091,0,40,17.909,40,40S474.091,476,452,476z"/>
	<path style="fill:none;stroke:#000000;stroke-width:40;stroke-linecap:round;stroke-linejoin:round;stroke-miterlimit:10;" d="&#10;&#9;&#9;M56,316V116c0-44.183,35.817-80,80-80h240c44.183,0,80,35.817,80,80v200"/>
	<path style="fill:none;stroke:#000000;stroke-width:40;stroke-linecap:round;stroke-linejoin:round;stroke-miterlimit:10;" d="&#10;&#9;&#9;M176,276c18.885-25.181,48.524-40,80-40s61.115,14.819,80,40"/>
	
		<line style="fill:none;stroke:#000000;stroke-width:40;stroke-linecap:round;stroke-linejoin:round;stroke-miterlimit:10;" x1="136" y1="116" x2="196" y2="176"/>
	
		<line style="fill:none;stroke:#000000;stroke-width:40;stroke-linecap:round;stroke-linejoin:round;stroke-miterlimit:10;" x1="196" y1="116" x2="136" y2="176"/>
	
		<line style="fill:none;stroke:#000000;stroke-width:40;stroke-linecap:round;stroke-linejoin:round;stroke-miterlimit:10;" x1="376" y1="116" x2="316" y2="176"/>
	
		<line style="fill:none;stroke:#000000;stroke-width:40;stroke-linecap:round;stroke-linejoin:round;stroke-miterlimit:10;" x1="316" y1="116" x2="376" y2="176"/>
</g>















</svg>
